# xmcd
#
# Track frame offsets:
#	150
#	19871
#	34863
#	53745
#	71710
#	90829
#	107273
#	125953
#	146867
#	164895
#	183310
#	205162
#
# Disc length: 2987 seconds
#
# Revision: 0
# Processed by: cddbd v1.5.2PL0 Copyright (c) Steve Scherf et al.
# Submitted via: EasyCDDAExtractor 12.0.0.1
#
DISCID=ac0ba90c
DTITLE=Patty Pravo - I grandi successi
DYEAR=2007
DGENRE=Pop
TTITLE0=Sconosciuti cieli
TTITLE1=Rispondi
TTITLE2=Grand Hotel
TTITLE3=Tutto il mondo è casa mia
TTITLE4=Pensiero stupendo
TTITLE5=Notti bianche
TTITLE6=Le tue mani su di me
TTITLE7=Sentirti
TTITLE8=Autostop
TTITLE9=Io ti venderei
TTITLE10=Les etrangers
TTITLE11=E dimmi che non vuoi morire
EXTD=
EXTT0=
EXTT1=
EXTT2=
EXTT3=
EXTT4=
EXTT5=
EXTT6=
EXTT7=
EXTT8=
EXTT9=
EXTT10=
EXTT11=
PLAYORDER=
